<?xml version="1.0" encoding="UTF-8"?>
<svg width="29px" height="28px" viewBox="0 0 29 28" version="1.1" xmlns="http://www.w3.org/2000/svg" xmlns:xlink="http://www.w3.org/1999/xlink">
    <!-- Generator: Sketch 49.2 (51160) - http://www.bohemiancoding.com/sketch -->
    <title>shape</title>
    <desc>Created with Sketch.</desc>
    <defs></defs>
    <g id="Workflow" stroke="none" stroke-width="1" fill="none" fill-rule="evenodd">
        <g id="02-login" transform="translate(-940.000000, -754.000000)" fill="#161614" fill-rule="nonzero">
            <g id="view-2" transform="translate(720.000000, 0.000000)">
                <g id="form" transform="translate(120.000000, 288.000000)">
                    <g id="button-github" transform="translate(0.000000, 456.000000)">
                        <g id="github-icon" transform="translate(100.000000, 10.000000)">
                            <path d="M14.3379116,0 C6.42032129,0 0,6.41919679 0,14.3379116 C0,20.6728835 4.10824096,26.0473092 9.80517269,27.9432129 C10.5217028,28.0759036 10.7848353,27.6321767 10.7848353,27.2534458 C10.7848353,26.9115984 10.7714538,25.7820402 10.7653815,24.584 C6.7764498,25.4513253 5.93476305,22.8923052 5.93476305,22.8923052 C5.28255422,21.2350201 4.34281124,20.7944418 4.34281124,20.7944418 C3.04199197,19.9045141 4.44086747,19.9227309 4.44086747,19.9227309 C5.8806747,20.0239357 6.63881124,21.4003213 6.63881124,21.4003213 C7.91759036,23.5923052 9.99296386,22.9585382 10.8111486,22.5922892 C10.9397912,21.6654779 11.3114378,21.0330602 11.7214297,20.6750201 C8.53685141,20.3123695 5.18899598,19.0829558 5.18899598,13.5891084 C5.18899598,12.0238072 5.74910843,10.7446908 6.66636145,9.74062651 C6.51747791,9.37943775 6.02674699,7.92118876 6.80523695,5.94623293 C6.80523695,5.94623293 8.00923695,5.56086747 10.7491888,7.41595181 C11.8928032,7.09816867 13.1194056,6.93893976 14.3379116,6.93354217 C15.5564177,6.93893976 16.7839197,7.09816867 17.9297831,7.41595181 C20.6664739,5.56086747 21.8687871,5.94623293 21.8687871,5.94623293 C22.6491888,7.92118876 22.1582329,9.37943775 22.0093494,9.74062651 C22.9286265,10.7446908 23.4849157,12.0236948 23.4849157,13.5891084 C23.4849157,19.096 20.1307631,20.3086586 16.9380884,20.6635502 C17.4523213,21.1085141 17.9105542,21.9811245 17.9105542,23.3187149 C17.9105542,25.2371084 17.8939116,26.7811566 17.8939116,27.2534458 C17.8939116,27.634988 18.1519839,28.0820884 18.8788594,27.9413012 C24.5726426,26.043261 28.6757108,20.670747 28.6757108,14.3379116 C28.6757108,6.41919679 22.2562892,0 14.3379116,0" id="shape"></path>
                        </g>
                    </g>
                </g>
            </g>
        </g>
    </g>
</svg>