<?xml version="1.0" encoding="UTF-8"?>
<svg width="28px" height="28px" viewBox="0 0 28 28" version="1.1" xmlns="http://www.w3.org/2000/svg" xmlns:xlink="http://www.w3.org/1999/xlink">
    <!-- Generator: Sketch 49.2 (51160) - http://www.bohemiancoding.com/sketch -->
    <title>google-icon</title>
    <desc>Created with Sketch.</desc>
    <defs></defs>
    <g id="Workflow" stroke="none" stroke-width="1" fill="none" fill-rule="evenodd">
        <g id="02-login" transform="translate(-1186.000000, -754.000000)" fill-rule="nonzero">
            <g id="view-2" transform="translate(720.000000, 0.000000)">
                <g id="form" transform="translate(120.000000, 288.000000)">
                    <g id="button-google" transform="translate(246.000000, 456.000000)">
                        <g id="google-icon" transform="translate(100.000000, 10.000000)">
                            <path d="M27.3457405,14.2619389 C27.3457405,13.1147939 27.2526565,12.2776794 27.0512061,11.4095725 L13.9519084,11.4095725 L13.9519084,16.5872214 L21.6409008,16.5872214 C21.4859389,17.8739389 20.6488244,19.8117099 18.7885344,21.1138168 L18.762458,21.2871603 L22.9042137,24.4957252 L23.1911603,24.5243664 C25.8264733,22.0905038 27.3457405,18.5094962 27.3457405,14.2619389" id="shape" fill="#4285F4"></path>
                            <path d="M13.9519084,27.9038168 C17.7188702,27.9038168 20.8812672,26.6635878 23.1911603,24.5243664 L18.7885344,21.1138168 C17.6103969,21.9354351 16.029145,22.5090076 13.9519084,22.5090076 C10.2624275,22.5090076 7.1310229,20.0752519 6.01476336,16.7112977 L5.85114504,16.7251908 L1.54448855,20.0581527 L1.48816794,20.2147176 C3.78245802,24.7723053 8.4951145,27.9038168 13.9519084,27.9038168" id="shape" fill="#34A853"></path>
                            <path d="M6.01476336,16.7112977 C5.72022901,15.8431908 5.54977099,14.9129924 5.54977099,13.9519084 C5.54977099,12.9907176 5.72022901,12.060626 5.99926718,11.1925191 L5.99146565,11.0076336 L1.63083969,7.62112977 L1.48816794,7.68899237 C0.542580153,9.58027481 0,11.7041069 0,13.9519084 C0,16.1997099 0.542580153,18.3234351 1.48816794,20.2147176 L6.01476336,16.7112977" id="shape" fill="#FBBC05"></path>
                            <path d="M13.9519084,5.39470229 C16.5717252,5.39470229 18.3389313,6.52635115 19.3466107,7.4720458 L23.2841374,3.62749618 C20.8658779,1.37969466 17.7188702,0 13.9519084,0 C8.4951145,0 3.78245802,3.13140458 1.48816794,7.68899237 L5.99926718,11.1925191 C7.1310229,7.82856489 10.2624275,5.39470229 13.9519084,5.39470229" id="shape" fill="#EB4335"></path>
                        </g>
                    </g>
                </g>
            </g>
        </g>
    </g>
</svg>